<svg width="160" height="280" viewBox="0 0 160 280" fill="none" xmlns="http://www.w3.org/2000/svg">
<rect x="90" width="20" height="20" transform="rotate(90 90 0)" fill="#FC9838"/>
<rect x="90" y="160" width="20" height="20" transform="rotate(90 90 160)" fill="#FC9838"/>
<rect x="90" y="100" width="20" height="20" transform="rotate(90 90 100)" fill="#FC9838"/>
<rect x="90" y="260" width="20" height="20" transform="rotate(90 90 260)" fill="#FC9838"/>
<rect x="90" y="40" width="20" height="20" transform="rotate(90 90 40)" fill="#FC9838"/>
<rect x="90" y="200" width="20" height="20" transform="rotate(90 90 200)" fill="#FC9838"/>
<rect x="90" y="140" width="20" height="20" transform="rotate(90 90 140)" fill="white"/>
<rect x="90" y="20" width="20" height="20" transform="rotate(90 90 20)" fill="#FC9838"/>
<rect x="90" y="180" width="20" height="20" transform="rotate(90 90 180)" fill="#FC9838"/>
<rect x="90" y="120" width="20" height="20" transform="rotate(90 90 120)" fill="white"/>
<rect x="90" y="60" width="20" height="20" transform="rotate(90 90 60)" fill="#FC9838"/>
<rect x="90" y="220" width="20" height="20" transform="rotate(90 90 220)" fill="#FC9838"/>
<rect x="90" y="80" width="20" height="20" transform="rotate(90 90 80)" fill="#FC9838"/>
<rect x="90" y="240" width="20" height="20" transform="rotate(90 90 240)" fill="#FC9838"/>
</svg>
